<?xml version="1.0" standalone="no"?>
<!DOCTYPE svg PUBLIC "-//W3C//DTD SVG 20010904//EN"
 "http://www.w3.org/TR/2001/REC-SVG-20010904/DTD/svg10.dtd">
<svg version="1.0" xmlns="http://www.w3.org/2000/svg"
 width="1600.000000pt" height="1600.000000pt" viewBox="0 0 1600.000000 1600.000000"
 preserveAspectRatio="xMidYMid meet">

<g transform="translate(0.000000,1600.000000) scale(0.100000,-0.100000)"
fill="#000000" stroke="none">
<path d="M7975 15502 c-11 -2 -323 -307 -694 -678 -371 -370 -678 -671 -683
-668 -5 3 -7 1 -6 -4 6 -20 -393 -413 -399 -394 -4 10 -9 9 -24 -4 -10 -9 -19
-22 -19 -28 0 -6 7 -2 15 8 8 11 18 16 22 13 3 -4 -31 -45 -78 -91 -59 -60
-87 -82 -95 -75 -8 7 -14 6 -19 -1 -9 -14 -42 -13 -48 3 -2 6 -8 9 -12 5 -5
-5 0 -17 10 -28 17 -19 19 -19 37 -3 10 9 21 13 25 10 3 -4 -24 -37 -60 -73
-37 -36 -67 -60 -67 -51 0 8 11 22 24 31 28 18 33 68 9 87 -8 8 -13 8 -13 1 0
-6 6 -13 13 -16 9 -3 7 -9 -6 -19 -10 -9 -14 -18 -8 -21 5 -3 12 -1 14 4 3 6
4 5 3 -2 -4 -18 -37 -23 -47 -7 -4 7 -11 10 -15 6 -4 -4 -2 -13 4 -19 7 -7 12
-19 12 -27 0 -11 -6 -9 -20 9 -11 14 -18 33 -16 42 2 10 -1 15 -9 12 -16 -7
-14 -54 3 -54 18 0 15 -17 -5 -29 -10 -6 -13 -11 -6 -11 6 0 14 4 18 10 9 14
35 0 35 -19 0 -14 -2 -14 -10 -1 -7 12 -12 12 -22 2 -16 -16 -45 -16 -51 1 -2
6 -8 8 -13 4 -4 -4 1 -17 12 -27 20 -20 20 -20 42 0 29 27 29 5 0 -25 -20 -20
-24 -21 -34 -8 -8 12 -13 13 -18 5 -4 -7 -2 -12 3 -12 6 0 11 -8 11 -17 -1
-17 -1 -17 -14 0 -8 10 -12 27 -9 38 4 14 1 18 -10 14 -10 -5 -16 2 -19 24 -4
29 -3 30 29 26 24 -3 33 0 33 10 0 18 -4 18 -52 5 -25 -7 -35 -15 -32 -25 3
-7 -4 -18 -15 -25 -30 -16 -26 -30 9 -30 17 0 30 -4 30 -10 0 -5 -8 -10 -17
-10 -9 0 -25 -7 -35 -17 -17 -15 -18 -15 -18 0 0 21 -18 22 -40 2 -15 -14
-164 -15 -1267 -15 -1366 0 -1274 4 -1403 -58 -72 -34 -196 -158 -232 -232
-60 -123 -57 -85 -58 -871 0 -398 -2 -725 -5 -727 -3 -3 -6 159 -7 359 -1 200
-4 291 -5 201 -3 -162 -4 -163 -26 -160 -18 2 -23 11 -25 41 -3 32 0 37 17 37
12 0 21 7 21 15 0 8 -9 15 -20 15 -11 0 -20 5 -20 10 0 6 -8 10 -19 10 -13 0
-21 -10 -26 -32 -4 -18 -10 -402 -12 -854 l-4 -821 -1070 -1069 c-589 -588
-1078 -1082 -1087 -1099 -23 -43 -22 -150 2 -195 10 -19 500 -516 1087 -1105
l1069 -1070 0 -1311 c0 -1264 1 -1313 19 -1387 23 -89 48 -142 104 -217 117
-159 275 -248 478 -270 57 -6 594 -10 1344 -10 l1250 0 1070 -1070 c756 -755
1081 -1074 1107 -1085 48 -19 128 -19 176 0 26 11 351 330 1107 1085 l1070
1070 1315 3 c943 2 1328 7 1362 15 199 48 367 181 453 357 75 153 70 57 67
1515 l-3 1305 1069 1070 c588 589 1078 1086 1088 1105 24 46 25 153 2 196 -10
18 -499 512 -1088 1100 l-1070 1068 -1 775 c-1 427 -4 817 -8 866 -5 50 -9 80
-9 68 -2 -22 -32 -34 -32 -13 0 6 -11 10 -25 10 l-25 0 1 -101 c0 -55 -2 -103
-5 -107 -3 -3 -7 51 -8 119 -2 68 -5 -4 -8 -161 -4 -195 -6 -57 -8 441 -2 791
-1 771 -60 882 -42 78 -146 184 -216 220 -140 72 -31 67 -1426 67 -1112 0
-1256 1 -1266 15 -16 22 -24 19 -24 -10 0 -14 -4 -25 -10 -25 -5 0 -10 9 -10
19 0 27 -15 34 -30 16 -17 -20 -33 -19 -55 5 -10 11 -23 20 -29 20 -6 0 8 -17
32 -38 23 -21 42 -43 42 -51 0 -7 -247 234 -549 535 -303 301 -548 551 -545
556 3 5 1 7 -5 6 -15 -4 -341 323 -334 335 3 6 2 7 -4 4 -5 -3 -187 171 -404
387 -251 250 -403 395 -419 398 -14 3 -34 3 -45 0z m-2235 -2162 c0 -5 -4 -10
-10 -10 -5 0 -10 5 -10 10 0 6 5 10 10 10 6 0 10 -4 10 -10z m12 -40 c-25 -24
-33 -25 -26 -5 4 8 12 15 20 15 8 0 14 5 14 12 0 6 3 8 7 5 3 -4 -3 -16 -15
-27z m4571 -18 c17 -21 1 -24 -18 -2 -11 13 -15 25 -10 37 8 17 8 17 13 -2 2
-11 9 -26 15 -33z m-4616 6 c-1 -22 -13 -45 -34 -67 -18 -19 -33 -28 -33 -21
0 6 11 21 25 32 18 14 25 29 25 54 0 19 4 34 10 34 5 0 8 -15 7 -32z m-79 2
c14 0 22 -3 19 -7 -4 -3 -2 -12 4 -20 9 -10 8 -13 -5 -13 -9 0 -16 8 -16 18
-1 15 -2 15 -15 -2 -12 -16 -15 -17 -15 -4 0 9 -2 22 -3 30 -2 7 -2 10 0 6 3
-5 16 -8 31 -8z m4768 -12 c4 -12 17 -31 30 -41 14 -10 21 -23 18 -29 -3 -5
-15 0 -26 12 -16 17 -22 19 -29 9 -4 -7 -12 -10 -16 -5 -4 5 -2 11 5 13 14 5
16 43 2 43 -5 0 -10 -7 -10 -15 0 -8 -6 -15 -14 -15 -8 0 -13 10 -13 25 0 33
42 36 53 3z m44 8 c0 -2 -7 -7 -16 -10 -8 -3 -12 -2 -9 4 6 10 25 14 25 6z
m-4888 -38 c-7 -7 -12 -8 -12 -2 0 14 12 26 19 19 2 -3 -1 -11 -7 -17z m4798
-30 c68 -71 64 -83 -5 -14 -50 50 -63 66 -50 66 2 0 27 -24 55 -52z m110 32
c0 -5 -2 -10 -4 -10 -3 0 -8 5 -11 10 -3 6 -1 10 4 10 6 0 11 -4 11 -10z
m-4830 -20 c0 -5 -4 -10 -10 -10 -5 0 -10 5 -10 10 0 6 5 10 10 10 6 0 10 -4
10 -10z m-100 -14 c0 -8 11 -17 25 -20 14 -4 25 -11 25 -16 0 -13 -3 -13 -36
4 -15 8 -31 13 -35 10 -6 -3 -6 14 0 34 3 9 21 -1 21 -12z m4967 -11 c0 -8 -7
-15 -15 -15 -12 0 -12 3 -2 15 7 8 13 15 15 15 1 0 2 -7 2 -15z m-57 -25 c0
-5 -4 -10 -10 -10 -5 0 -10 5 -10 10 0 6 5 10 10 10 6 0 10 -4 10 -10z m-4960
-4 c0 -3 -4 -8 -10 -11 -5 -3 -10 -1 -10 4 0 6 5 11 10 11 6 0 10 -2 10 -4z
m5060 -6 c0 -5 -2 -10 -4 -10 -3 0 -8 5 -11 10 -3 6 -1 10 4 10 6 0 11 -4 11
-10z m-4990 -20 c0 -5 -4 -10 -10 -10 -5 0 -10 5 -10 10 0 6 5 10 10 10 6 0
10 -4 10 -10z m4920 -11 c0 -11 -4 -17 -10 -14 -5 3 -10 13 -10 21 0 8 5 14
10 14 6 0 10 -9 10 -21z m-4890 -10 c-7 -11 -14 -18 -17 -15 -3 3 0 12 7 21
18 21 23 19 10 -6z m4850 1 c6 -11 8 -20 6 -20 -3 0 -10 9 -16 20 -6 11 -8 20
-6 20 3 0 10 -9 16 -20z m-4983 -12 c2 -17 0 -19 -7 -8 -5 8 -6 18 -4 22 8 12
10 10 11 -14z m48 -18 c3 -5 1 -10 -4 -10 -6 0 -11 5 -11 10 0 6 2 10 4 10 3
0 8 -4 11 -10z m41 -15 c-9 -9 -16 -13 -16 -8 0 12 22 34 28 28 2 -2 -3 -11
-12 -20z m4929 15 c3 -5 1 -10 -4 -10 -6 0 -11 5 -11 10 0 6 2 10 4 10 3 0 8
-4 11 -10z m55 0 c0 -5 -5 -10 -11 -10 -5 0 -7 5 -4 10 3 6 8 10 11 10 2 0 4
-4 4 -10z m10 -69 c13 -11 12 -12 -6 -3 -12 7 -24 19 -28 29 -5 16 -4 16 7 3
7 -8 19 -21 27 -29z m-5162 -6 c-3 -3 -9 2 -12 12 -6 14 -5 15 5 6 7 -7 10
-15 7 -18z m88 -20 c-9 -9 -16 -13 -16 -8 0 12 22 34 28 28 2 -2 -3 -11 -12
-20z m5144 15 c0 -5 -4 -10 -10 -10 -5 0 -10 5 -10 10 0 6 5 10 10 10 6 0 10
-4 10 -10z m30 -30 c0 -5 -4 -10 -10 -10 -5 0 -10 5 -10 10 0 6 5 10 10 10 6
0 10 -4 10 -10z m-40 -20 c6 -11 8 -20 6 -20 -3 0 -10 9 -16 20 -6 11 -8 20
-6 20 3 0 10 -9 16 -20z m-5200 -30 c0 -5 -5 -10 -11 -10 -5 0 -7 5 -4 10 3 6
8 10 11 10 2 0 4 -4 4 -10z m5240 0 c0 -5 -4 -10 -10 -10 -5 0 -10 5 -10 10 0
6 5 10 10 10 6 0 10 -4 10 -10z m-5290 -50 c-6 -11 -13 -20 -16 -20 -2 0 0 9
6 20 6 11 13 20 16 20 2 0 0 -9 -6 -20z m5334 -6 c3 -8 2 -12 -4 -9 -6 3 -10
10 -10 16 0 14 7 11 14 -7z m-5364 -24 c0 -5 -5 -10 -11 -10 -5 0 -7 5 -4 10
3 6 8 10 11 10 2 0 4 -4 4 -10z m-140 -81 c0 -6 -4 -7 -10 -4 -5 3 -10 11 -10
16 0 6 5 7 10 4 6 -3 10 -11 10 -16z m5770 -9 c0 -5 -2 -10 -4 -10 -3 0 -8 5
-11 10 -3 6 -1 10 4 10 6 0 11 -4 11 -10z m2500 -890 c0 -31 -3 -38 -15 -34
-9 4 -15 19 -15 40 0 24 5 34 15 34 11 0 15 -11 15 -40z m-10843 -142 c-3 -8
-6 -5 -6 6 -1 11 2 17 5 13 3 -3 4 -12 1 -19z m20 0 c-3 -8 -6 -5 -6 6 -1 11
2 17 5 13 3 -3 4 -12 1 -19z m10803 7 c0 -9 -9 -15 -25 -15 -16 0 -25 6 -25
15 0 9 9 15 25 15 16 0 25 -6 25 -15z m-7670 -805 c0 -31 -36 -95 -65 -118
-27 -22 -82 -38 -92 -28 -15 14 22 93 59 129 45 43 98 52 98 17z m1630 -374
c0 -332 -2 -375 -16 -380 -21 -8 -628 -8 -688 0 l-46 7 0 373 0 374 375 0 375
0 0 -374z m-1837 184 c40 -12 54 -12 95 0 81 24 145 24 189 2 66 -34 69 -44
29 -96 -40 -53 -51 -91 -41 -153 5 -37 16 -55 56 -95 l49 -49 -32 -62 c-18
-34 -49 -78 -69 -99 -41 -44 -66 -47 -158 -22 -55 16 -62 16 -121 -3 -80 -25
-104 -20 -154 31 -107 107 -156 318 -102 438 51 115 125 146 259 108z m2727
-10 c0 -4 -11 -33 -25 -64 l-25 -57 22 -18 c21 -18 21 -19 5 -45 -20 -30 -33
-32 -59 -9 -23 21 -23 38 2 56 19 13 19 14 -5 63 -35 70 -33 82 13 86 43 4 72
-1 72 -12z m302 -8 c17 -17 22 -99 8 -132 -10 -24 -10 -33 0 -45 17 -21 9
-153 -10 -165 -18 -11 -108 -23 -141 -18 -21 3 -25 9 -29 53 -3 28 -4 112 -2
187 l3 137 47 3 c54 3 110 -6 124 -20z m118 -147 c0 -103 4 -166 10 -170 19
-12 40 16 40 51 0 31 3 34 29 34 33 0 41 -14 41 -70 0 -53 -15 -61 -107 -58
l-78 3 -3 187 -2 187 22 3 c47 8 48 5 48 -167z m-325 -7 c0 -198 -2 -203 -90
-203 -65 0 -92 21 -98 77 -5 45 12 63 48 54 21 -5 25 -12 25 -45 0 -36 18 -59
34 -44 3 4 6 77 6 163 0 86 3 160 7 164 4 4 21 6 38 4 l30 -3 0 -167z m1335
47 c16 -19 5 -54 -12 -37 -7 7 -17 12 -22 12 -6 0 5 -13 24 -29 31 -26 34 -31
25 -57 -7 -21 -18 -30 -37 -32 -33 -4 -68 13 -68 34 0 20 27 29 45 14 10 -9
15 -9 15 -1 0 6 -4 11 -8 11 -14 0 -52 40 -52 55 0 14 44 44 66 45 6 0 17 -7
24 -15z m129 -9 c5 -11 12 -45 16 -74 7 -52 7 -54 -16 -50 -19 2 -25 11 -30
38 l-5 35 -8 -37 c-7 -30 -13 -38 -31 -38 -22 0 -22 1 -10 64 15 78 18 84 51
84 17 0 28 -8 33 -22z m109 12 c7 -7 12 -21 13 -32 0 -16 4 -13 15 12 10 23
21 32 38 32 30 0 36 -16 36 -90 0 -63 -12 -78 -42 -52 -12 10 -18 11 -18 4 0
-7 -11 -12 -25 -12 -14 0 -25 6 -25 13 0 9 -3 9 -9 -1 -5 -8 -17 -12 -27 -10
-16 3 -19 12 -16 63 1 33 4 66 7 73 6 15 37 16 53 0z m216 -4 c9 -8 16 -19 16
-24 0 -12 -29 -20 -35 -10 -4 6 -12 10 -18 10 -7 0 3 -12 21 -26 51 -41 37
-94 -26 -94 -28 0 -59 37 -44 52 10 10 17 10 33 0 30 -19 34 -8 5 12 -14 9
-30 25 -36 37 -24 43 48 80 84 43z m84 -47 c4 -74 20 -74 24 1 2 43 7 57 18
57 24 0 27 -125 4 -142 -20 -15 -53 -17 -72 -5 -18 12 -27 119 -11 138 21 26
34 9 37 -49z m150 50 c6 -5 12 -18 12 -29 0 -10 5 -16 10 -13 6 4 8 11 4 16
-9 14 15 39 32 32 10 -4 14 -23 14 -73 0 -65 -1 -68 -26 -73 -22 -4 -28 1 -44
37 l-19 41 0 -37 c-1 -31 -5 -38 -21 -38 -18 0 -20 7 -20 68 0 38 2 71 5 74 9
8 39 6 53 -5z m183 2 c13 -6 19 -19 17 -32 -1 -12 1 -28 5 -35 14 -22 -3 -50
-41 -65 -50 -21 -65 -6 -63 63 1 75 29 98 82 69z m-1893 -844 c47 -20 78 -50
105 -100 l22 -40 0 -1420 0 -1420 -26 -40 c-15 -22 -36 -48 -47 -58 -51 -46
-58 -46 -797 -46 -661 -1 -702 0 -740 18 -51 24 -80 51 -105 101 -20 39 -20
59 -20 1448 l0 1410 28 53 c23 45 37 59 81 82 l55 27 703 0 c612 0 708 -2 741
-15z m-2718 -118 c322 -49 548 -145 709 -300 134 -129 191 -261 191 -446 0
-82 -5 -126 -21 -177 -59 -195 -217 -360 -419 -440 -39 -15 -68 -29 -66 -31 2
-3 30 -11 63 -20 112 -29 210 -89 313 -193 105 -104 148 -174 196 -315 24 -72
27 -95 27 -225 1 -113 -3 -158 -17 -203 -97 -316 -354 -520 -776 -616 -189
-43 -270 -46 -1215 -46 l-900 0 -3 1505 c-1 828 0 1511 3 1518 8 21 1770 11
1915 -11z m4033 -947 c142 -32 261 -94 360 -190 129 -123 191 -244 217 -421
23 -159 -28 -353 -130 -491 -125 -170 -326 -277 -554 -297 -305 -26 -566 68
-727 261 -62 75 -93 128 -126 219 -26 69 -27 85 -27 229 0 137 3 163 24 220
64 179 210 336 385 416 160 73 391 95 578 54z m1687 -55 c129 -29 230 -68 230
-89 0 -22 -125 -306 -134 -306 -2 0 -26 11 -54 25 -82 41 -159 57 -299 62
-121 5 -136 4 -178 -17 -45 -22 -61 -47 -53 -86 7 -40 91 -64 343 -99 146 -20
270 -71 338 -140 69 -68 81 -102 85 -231 3 -105 2 -115 -24 -170 -103 -219
-435 -326 -825 -268 -152 22 -323 74 -369 112 -20 17 -20 18 46 167 36 83 68
152 70 154 2 2 35 -10 73 -28 116 -53 247 -81 386 -82 159 -1 215 23 215 89 0
43 -55 65 -220 88 -391 54 -515 127 -556 328 -29 138 12 263 115 358 83 77
193 126 328 148 89 14 395 4 483 -15z m-2223 -1450 l53 -16 -30 -59 c-17 -33
-33 -60 -36 -60 -3 0 -27 7 -53 16 -62 20 -174 16 -179 -7 -3 -17 39 -32 128
-45 70 -10 147 -43 170 -71 26 -34 26 -96 0 -139 -23 -35 -77 -66 -153 -85
-83 -20 -316 6 -349 39 -13 13 43 112 63 112 9 0 38 -7 65 -15 59 -18 180 -20
190 -3 11 17 -21 35 -79 42 -95 13 -168 39 -203 72 -29 26 -34 38 -34 75 0 26
8 57 19 75 21 35 93 74 156 86 59 10 212 1 272 -17z m1132 -2 c62 -23 121 -65
151 -110 21 -31 25 -48 25 -113 0 -65 -4 -82 -25 -114 -108 -160 -429 -181
-570 -37 -70 72 -87 154 -49 236 36 75 118 133 222 155 59 13 192 4 246 -17z
m-504 -48 l0 -60 -85 -5 -85 -5 -5 -170 -5 -170 -97 -3 -98 -3 -2 173 -3 173
-82 3 -83 3 0 65 0 64 273 -2 272 -3 0 -60z m1169 45 c112 -35 159 -101 141
-197 -5 -27 -20 -50 -52 -80 l-46 -43 56 -64 c31 -35 53 -66 50 -70 -3 -3 -50
-6 -104 -6 l-97 0 -52 60 c-36 42 -59 60 -75 60 -22 0 -24 -5 -27 -57 l-3 -58
-100 0 -100 0 -3 225 c-1 123 0 230 2 237 4 10 47 13 175 13 141 0 180 -3 235
-20z m704 -24 c7 -86 9 -85 -146 -88 -129 -3 -137 -4 -137 -23 0 -19 8 -20
123 -23 l122 -3 0 -59 0 -60 -126 0 -125 0 3 -27 3 -28 143 -3 143 -3 -3 -57
-3 -57 -240 0 -240 0 -3 225 c-1 123 0 230 3 237 3 11 55 13 242 11 l238 -3 3
-39z m-1578 -780 c0 -12 -97 -76 -117 -76 -31 0 -29 8 9 47 25 26 40 33 70 33
21 0 38 -2 38 -4z m-5998 -107 c21 -5 50 -21 65 -34 l28 -24 -21 -21 -21 -21
-34 20 c-92 56 -209 -4 -209 -108 0 -113 103 -174 204 -120 39 20 39 21 59 1
24 -25 16 -39 -37 -63 -95 -43 -212 -13 -270 69 -58 82 -32 222 51 273 62 38
119 47 185 28z m3041 -10 c27 -12 34 -33 18 -58 -8 -12 -14 -12 -41 -1 -50 21
-117 17 -142 -7 -41 -41 -3 -72 119 -98 51 -10 93 -56 93 -99 0 -79 -52 -116
-162 -116 -87 1 -145 24 -140 55 6 35 20 40 57 22 47 -22 132 -22 157 0 40 36
13 62 -95 93 -91 27 -117 52 -117 113 0 32 6 46 35 73 19 18 45 35 57 38 37 7
131 -1 161 -15z m1449 10 c21 -5 50 -21 65 -34 l28 -24 -21 -21 -21 -21 -34
20 c-22 14 -51 21 -83 21 -43 0 -53 -4 -87 -39 -35 -35 -39 -44 -39 -91 0 -37
6 -61 21 -81 39 -55 115 -75 169 -44 48 27 52 28 73 7 16 -17 18 -24 8 -36
-43 -52 -182 -65 -248 -23 -55 35 -80 66 -93 116 -26 98 14 191 101 235 57 28
101 32 161 15z m741 -5 c49 -17 56 -28 34 -58 -11 -14 -18 -16 -33 -9 -39 21
-92 24 -129 9 -31 -13 -36 -20 -33 -43 3 -25 10 -30 78 -52 105 -32 120 -41
138 -78 22 -46 3 -107 -41 -133 -43 -27 -167 -28 -216 -2 -41 20 -46 31 -27
57 14 19 15 19 50 2 43 -20 125 -22 150 -4 21 15 18 56 -4 68 -8 4 -46 17 -84
29 -92 27 -116 50 -116 109 0 57 22 87 75 106 53 19 101 18 158 -1z m357 3
c36 -12 49 -39 31 -66 -8 -12 -14 -12 -41 -1 -41 17 -114 17 -134 0 -19 -15
-21 -54 -3 -67 14 -11 69 -29 115 -38 18 -4 46 -18 62 -32 26 -21 30 -32 30
-73 0 -44 -4 -52 -37 -79 -35 -29 -43 -31 -115 -31 -114 0 -169 31 -139 79 8
12 15 11 50 -3 58 -23 133 -21 155 3 30 33 12 59 -52 77 -100 29 -132 45 -147
75 -57 109 82 205 225 156z m373 2 c79 -22 146 -111 147 -194 0 -53 -35 -121
-83 -159 -35 -28 -47 -31 -120 -34 -76 -3 -85 -1 -128 26 -80 51 -111 159 -74
249 22 52 42 72 100 99 55 26 99 30 158 13z m1050 0 c47 -13 115 -72 134 -116
37 -90 -2 -197 -94 -254 -36 -23 -138 -28 -185 -10 -49 19 -105 78 -118 126
-28 100 12 194 101 239 57 28 101 32 162 15z m460 -10 c27 -12 34 -33 18 -58
-8 -12 -14 -12 -39 -2 -50 21 -120 17 -144 -6 -41 -41 -1 -74 119 -98 18 -4
46 -19 63 -35 52 -48 36 -131 -33 -166 -42 -22 -157 -21 -204 3 -43 21 -48 32
-29 58 14 19 15 19 50 2 21 -10 60 -17 91 -17 47 0 57 3 71 26 16 24 16 26 -2
43 -10 10 -53 28 -94 39 -90 26 -120 54 -120 112 0 47 37 95 83 110 40 12 133
6 170 -11z m-7033 -19 l0 -29 -102 -3 -103 -3 0 -45 0 -45 93 -3 92 -3 0 -29
0 -29 -92 -3 -93 -3 0 -50 0 -50 106 -3 c101 -2 107 -4 113 -25 3 -12 2 -25
-3 -30 -4 -4 -70 -6 -147 -5 l-139 3 -3 193 -2 192 140 0 140 0 0 -30z m160
-124 c0 -111 3 -156 13 -164 6 -6 49 -10 95 -9 86 0 106 -8 100 -39 -3 -17
-16 -19 -141 -22 l-137 -3 0 196 0 195 35 0 35 0 0 -154z m330 11 c5 -137 5
-139 33 -163 18 -15 41 -24 62 -24 21 0 44 9 62 24 28 24 28 26 33 163 l5 138
35 0 35 0 -1 -135 c0 -149 -8 -177 -64 -224 -28 -23 -40 -26 -103 -26 -139 0
-177 56 -177 260 0 64 3 120 7 124 4 4 21 6 38 4 l30 -3 5 -138z m440 -11 c0
-108 4 -157 12 -162 6 -4 50 -9 97 -11 59 -3 89 -9 97 -19 9 -11 27 23 89 166
l77 180 39 0 c38 0 40 -2 63 -52 73 -161 146 -327 146 -332 0 -3 -16 -6 -35
-6 -32 0 -37 4 -57 45 l-22 45 -96 0 -96 0 -15 -42 -16 -43 -176 -3 -177 -2 0
195 0 195 35 0 35 0 0 -154z m914 140 c46 -19 74 -52 81 -97 9 -51 -9 -103
-46 -132 l-29 -22 39 -55 c22 -30 37 -58 35 -62 -3 -5 -20 -8 -39 -8 -29 0
-37 6 -65 50 -38 60 -52 68 -105 60 l-40 -5 -3 -53 -3 -53 -32 3 -32 3 -3 193
-2 192 105 0 c68 0 118 -5 139 -14z m441 -16 c0 -25 -1 -25 -105 -30 -101 -5
-105 -6 -108 -29 -2 -12 -1 -34 2 -47 6 -23 10 -24 96 -24 l90 0 0 -30 0 -29
-92 -3 -93 -3 0 -50 0 -50 110 -5 c109 -5 110 -5 110 -30 l0 -25 -145 0 -145
0 -3 193 -2 193 142 -3 143 -3 0 -25z m875 0 l0 -30 -106 0 -105 0 3 -47 3
-48 85 -3 c47 -2 89 -7 93 -11 5 -5 6 -18 2 -30 -6 -19 -14 -21 -96 -21 l-89
0 0 -55 0 -55 111 0 110 0 -3 -27 -3 -28 -145 0 -145 0 -3 180 c-1 98 0 185 2
192 4 10 41 13 146 13 l140 0 0 -30z m454 2 c26 -50 156 -345 156 -354 0 -4
-16 -8 -36 -8 -32 0 -37 4 -55 45 l-20 45 -94 0 -94 0 -20 -45 c-18 -41 -23
-45 -55 -45 -20 0 -36 4 -36 9 0 5 20 52 45 105 25 53 45 98 45 100 0 2 18 43
40 90 38 84 40 86 74 86 29 0 38 -5 50 -28z m876 -2 l0 -29 -102 -3 -103 -3 0
-45 0 -45 93 -3 92 -3 0 -29 0 -29 -92 -3 -93 -3 0 -50 0 -50 108 -3 107 -3 0
-29 0 -30 -145 0 -145 0 0 195 0 195 140 0 140 0 0 -30z m1508 16 c87 -45 105
-153 37 -221 l-33 -33 34 -50 c19 -28 34 -56 34 -62 0 -5 -16 -10 -35 -10 -31
0 -38 6 -70 55 l-35 55 -55 0 -55 0 0 -55 0 -55 -35 0 -35 0 0 195 0 195 110
0 c76 0 120 -4 138 -14z m222 -181 l0 -195 -35 0 -35 0 0 195 0 195 35 0 35 0
0 -195z"/>
<path d="M8470 10650 c0 -43 3 -50 20 -50 17 0 20 7 20 50 0 43 -3 50 -20 50
-17 0 -20 -7 -20 -50z"/>
<path d="M8477 10543 c-4 -3 -7 -33 -7 -65 0 -51 2 -58 20 -58 18 0 20 7 20
65 0 48 -4 65 -13 65 -8 0 -17 -3 -20 -7z"/>
<path d="M10530 10579 c0 -11 5 -17 10 -14 6 3 10 13 10 21 0 8 -4 14 -10 14
-5 0 -10 -9 -10 -21z"/>
<path d="M10530 10536 c0 -9 5 -16 10 -16 6 0 10 4 10 9 0 6 -4 13 -10 16 -5
3 -10 -1 -10 -9z"/>
<path d="M7595 9649 c-4 -11 -4 -36 0 -55 l6 -34 335 0 334 0 12 25 c8 18 9
35 2 53 l-9 27 -337 3 c-334 2 -337 2 -343 -19z"/>
<path d="M7239 8938 c-1 -266 -2 -512 -3 -548 0 -36 0 -275 2 -532 l2 -468
700 0 700 0 0 1015 0 1015 -700 0 -700 0 -1 -482z m826 423 c90 -51 138 -131
138 -232 1 -221 -262 -338 -431 -193 -77 66 -108 186 -73 288 22 64 93 132
166 158 41 15 158 2 200 -21z m94 -607 c17 -14 35 -42 41 -62 17 -58 9 -1189
-8 -1223 -28 -53 -54 -59 -252 -59 l-182 0 -34 34 -34 34 2 622 3 622 33 29
32 29 184 0 c184 0 185 0 215 -26z"/>
<path d="M7873 7156 c-86 -39 -98 -181 -19 -241 49 -37 87 -41 142 -15 89 43
108 153 40 228 -27 29 -40 35 -82 38 -29 3 -62 -1 -81 -10z"/>
<path d="M5070 8735 l0 -215 278 0 c257 0 280 2 322 21 56 25 77 44 100 89 45
90 31 189 -34 255 -62 61 -86 65 -395 65 l-271 0 0 -215z"/>
<path d="M5070 7621 l0 -231 266 0 c210 0 279 3 327 16 106 27 156 61 191 130
57 114 9 227 -123 288 -43 20 -66 21 -353 24 l-308 3 0 -230z"/>
<path d="M9704 8270 c-23 -11 -55 -40 -73 -64 -101 -141 -58 -358 84 -425 55
-26 88 -26 141 -2 54 24 90 64 121 130 22 47 25 63 21 135 -3 56 -11 94 -26
122 -23 45 -80 100 -119 115 -40 15 -105 10 -149 -11z"/>
<path d="M10394 7099 c-54 -15 -84 -55 -84 -109 0 -38 5 -53 26 -73 39 -39 87
-52 138 -37 52 15 72 33 86 76 30 91 -64 173 -166 143z"/>
<path d="M11052 7048 l3 -53 52 0 c80 1 116 42 73 85 -15 15 -33 20 -76 20
l-55 0 3 -52z"/>
<path d="M10207 6221 c-43 -28 -59 -58 -60 -110 -1 -58 24 -103 70 -125 116
-55 231 55 184 176 -5 14 -25 38 -44 52 -42 32 -108 35 -150 7z"/>
<path d="M11239 6201 c-36 -35 -39 -43 -39 -93 0 -41 5 -62 21 -82 71 -91 201
-67 238 43 16 48 -1 102 -44 140 -30 26 -44 31 -87 31 -45 0 -54 -4 -89 -39z"/>
<path d="M6127 6142 c-15 -37 -27 -70 -27 -74 0 -5 29 -8 65 -8 36 0 65 2 65
4 0 13 -60 141 -67 143 -4 2 -20 -27 -36 -65z"/>
<path d="M6494 6226 c-3 -7 -4 -40 -2 -72 l3 -59 67 -3 c57 -2 70 0 88 18 30
30 27 83 -6 109 -32 25 -141 31 -150 7z"/>
<path d="M8353 6153 c-12 -32 -25 -66 -29 -75 -5 -16 1 -18 61 -18 63 0 66 1
60 21 -13 40 -57 129 -63 129 -4 0 -17 -26 -29 -57z"/>
<path d="M10647 6233 c-4 -3 -7 -37 -7 -75 l0 -68 70 0 c57 0 74 4 90 20 28
28 26 75 -5 105 -20 21 -34 25 -83 25 -32 0 -62 -3 -65 -7z"/>
<path d="M9565 14130 c3 -5 8 -10 11 -10 2 0 4 5 4 10 0 6 -5 10 -11 10 -5 0
-7 -4 -4 -10z"/>
<path d="M9607 13999 c7 -7 15 -10 18 -7 3 3 -2 9 -12 12 -14 6 -15 5 -6 -5z"/>
<path d="M6350 13960 c0 -13 18 -22 24 -11 3 5 -1 11 -9 15 -8 3 -15 1 -15 -4z"/>
<path d="M9625 13960 c-3 -5 1 -10 10 -10 9 0 13 5 10 10 -3 6 -8 10 -10 10
-2 0 -7 -4 -10 -10z"/>
<path d="M6308 13928 c-10 -10 -14 -18 -9 -18 10 0 36 29 30 34 -2 1 -12 -6
-21 -16z"/>
<path d="M9670 13901 c0 -6 4 -13 10 -16 6 -3 7 1 4 9 -7 18 -14 21 -14 7z"/>
<path d="M9805 13890 c3 -5 8 -10 11 -10 2 0 4 5 4 10 0 6 -5 10 -11 10 -5 0
-7 -4 -4 -10z"/>
<path d="M6272 13881 c2 -7 7 -12 11 -12 12 1 9 15 -3 20 -7 2 -11 -2 -8 -8z"/>
<path d="M9705 13881 c-6 -11 9 -23 19 -14 9 9 7 23 -3 23 -6 0 -12 -4 -16 -9z"/>
<path d="M6228 13848 c-10 -10 -14 -18 -9 -18 10 0 36 29 30 34 -2 1 -12 -6
-21 -16z"/>
<path d="M9750 13861 c0 -10 29 -36 34 -30 1 2 -6 12 -16 22 -10 9 -18 13 -18
8z"/>
<path d="M9846 13837 c3 -10 9 -15 12 -12 3 3 0 11 -7 18 -10 9 -11 8 -5 -6z"/>
<path d="M9810 13819 c0 -5 5 -7 10 -4 6 3 10 8 10 11 0 2 -4 4 -10 4 -5 0
-10 -5 -10 -11z"/>
<path d="M6191 13798 c8 -15 13 -17 25 -7 18 15 18 16 -11 21 -21 4 -23 3 -14
-14z"/>
<path d="M9885 13810 c3 -5 8 -10 11 -10 2 0 4 5 4 10 0 6 -5 10 -11 10 -5 0
-7 -4 -4 -10z"/>
<path d="M9785 13790 c3 -5 8 -10 11 -10 2 0 4 5 4 10 0 6 -5 10 -11 10 -5 0
-7 -4 -4 -10z"/>
<path d="M6160 13781 c0 -6 -10 -16 -22 -21 -16 -6 -18 -9 -7 -9 19 -1 45 26
35 36 -3 3 -6 1 -6 -6z"/>
<path d="M9830 13782 c0 -12 19 -26 26 -19 2 2 -2 10 -11 17 -9 8 -15 8 -15 2z"/>
<path d="M9920 13766 c0 -2 7 -9 15 -16 9 -7 15 -8 15 -2 0 5 -7 12 -15 16 -8
3 -15 4 -15 2z"/>
<path d="M6020 13729 c0 -5 5 -7 10 -4 6 3 10 8 10 11 0 2 -4 4 -10 4 -5 0
-10 -5 -10 -11z"/>
<path d="M9890 13730 c0 -5 5 -10 10 -10 6 0 10 5 10 10 0 6 -4 10 -10 10 -5
0 -10 -4 -10 -10z"/>
<path d="M9850 13720 c0 -5 5 -10 10 -10 6 0 10 5 10 10 0 6 -4 10 -10 10 -5
0 -10 -4 -10 -10z"/>
<path d="M6081 13707 c-1 -10 -11 -22 -23 -27 -16 -6 -18 -9 -7 -9 21 -1 43
24 36 41 -3 8 -6 6 -6 -5z"/>
<path d="M6120 13710 c0 -15 -53 -60 -72 -60 -10 0 -18 -6 -18 -14 0 -8 -3
-21 -6 -30 -3 -9 -1 -16 5 -16 6 0 11 5 11 12 0 6 20 30 45 54 39 36 56 64 40
64 -3 0 -5 -4 -5 -10z"/>
<path d="M9910 13704 c0 -17 27 -37 42 -31 8 4 7 6 -4 6 -9 1 -22 9 -27 19 -6
9 -11 12 -11 6z"/>
<path d="M9880 13695 c0 -3 70 -75 155 -161 154 -155 156 -156 176 -138 12 11
18 26 15 37 -3 12 0 17 9 14 10 -4 10 1 -2 24 -15 30 -37 41 -26 13 4 -12 2
-15 -8 -12 -8 3 -13 14 -11 26 2 12 -2 22 -7 22 -6 0 -10 5 -8 11 4 18 -40 20
-58 3 -9 -9 -19 -13 -23 -10 -3 4 -1 11 6 15 7 4 10 15 6 24 -7 20 7 22 24 5
9 -9 12 -9 12 0 0 6 -13 18 -28 26 l-28 15 3 -32 c4 -27 2 -29 -7 -14 -9 14
-19 17 -37 12 -27 -7 -73 26 -73 52 0 7 -10 17 -22 22 -13 5 -33 19 -45 30
-13 12 -23 19 -23 16z m202 -173 c6 -7 19 -10 29 -7 13 4 19 1 19 -9 0 -24
-32 -19 -59 9 -16 17 -21 31 -16 43 7 15 8 15 13 -3 2 -11 9 -26 14 -33z m85
12 c-3 -4 -2 -15 3 -25 8 -14 6 -20 -7 -28 -14 -8 -16 -14 -7 -27 6 -10 17
-20 25 -22 12 -3 11 -2 -1 7 -8 5 -11 13 -7 17 9 9 37 -15 37 -32 0 -24 -44
-15 -64 12 -15 22 -16 30 -6 49 7 13 10 28 6 33 -3 6 0 13 6 15 19 8 22 8 15
1z"/>
<path d="M9990 13696 c0 -11 30 -39 36 -34 2 3 -5 13 -16 23 -11 10 -20 15
-20 11z"/>
<path d="M5940 13650 c0 -5 5 -10 10 -10 6 0 10 5 10 10 0 6 -4 10 -10 10 -5
0 -10 -4 -10 -10z"/>
<path d="M10044 13645 c3 -8 1 -15 -4 -15 -6 0 -10 5 -10 10 0 6 -4 10 -10 10
-20 0 -9 -28 13 -34 33 -9 35 -8 29 19 -2 14 -9 25 -14 25 -6 0 -8 -7 -4 -15z"/>
<path d="M6001 13633 c-1 -6 -8 -19 -17 -27 -8 -9 -11 -16 -6 -16 15 0 34 28
29 42 -4 9 -6 9 -6 1z"/>
<path d="M9991 13629 c-1 -21 24 -43 41 -36 9 4 8 6 -3 6 -9 1 -21 11 -27 24
-8 16 -11 17 -11 6z"/>
<path d="M5917 13611 c-16 -10 -24 -21 -19 -25 5 -3 13 1 16 10 4 10 14 14 26
11 13 -3 20 0 20 9 0 19 -9 18 -43 -5z"/>
<path d="M5860 13569 c0 -5 5 -7 10 -4 6 3 10 8 10 11 0 2 -4 4 -10 4 -5 0
-10 -5 -10 -11z"/>
<path d="M5940 13520 c0 -5 5 -10 10 -10 6 0 10 5 10 10 0 6 -4 10 -10 10 -5
0 -10 -4 -10 -10z"/>
<path d="M5775 13490 c-3 -5 -2 -10 4 -10 5 0 13 5 16 10 3 6 2 10 -4 10 -5 0
-13 -4 -16 -10z"/>
<path d="M10267 13444 c-4 -4 -7 -18 -7 -32 0 -17 -4 -23 -15 -18 -18 7 -20
-15 -3 -32 7 -7 19 -12 28 -11 10 0 11 2 3 6 -24 9 -13 23 17 23 32 0 41 17
14 27 -9 3 -19 14 -23 25 -4 10 -10 16 -14 12z"/>
</g>
</svg>
